<?xml version="1.0" standalone="no"?>
<!DOCTYPE svg PUBLIC "-//W3C//DTD SVG 20010904//EN"
 "http://www.w3.org/TR/2001/REC-SVG-20010904/DTD/svg10.dtd">
<svg version="1.0" xmlns="http://www.w3.org/2000/svg"
 width="852.000000pt" height="852.000000pt" viewBox="0 0 852.000000 852.000000"
 preserveAspectRatio="xMidYMid meet">
<metadata>
Created by potrace 1.14, written by Peter Selinger 2001-2017
</metadata>
<g transform="translate(0.000000,852.000000) scale(0.100000,-0.100000)"
fill="#000000" stroke="none">
<path d="M3595 8510 c-8 -13 5 -13 25 0 13 8 13 10 -2 10 -9 0 -20 -4 -23 -10z"/>
<path d="M4027 8503 c22 -20 48 -64 45 -75 -1 -5 7 -8 18 -8 11 0 20 4 20 10
0 13 87 56 132 64 21 4 40 11 43 16 4 6 -48 10 -136 10 -136 0 -141 -1 -122
-17z"/>
<path d="M5500 8505 c7 -8 16 -12 21 -9 13 8 1 24 -18 24 -13 0 -13 -3 -3 -15z"/>
<path d="M2683 8412 c-13 -2 -23 -11 -24 -20 -3 -42 4 -88 14 -100 8 -10 5
-12 -16 -8 -15 2 -29 1 -32 -3 -2 -5 3 -8 13 -8 40 0 43 -2 32 -23 -7 -14 -7
-20 0 -20 13 0 -31 -45 -45 -45 -15 -1 -6 -27 17 -47 19 -16 17 -23 -4 -19 -4
0 -4 -7 -1 -16 4 -11 8 -13 11 -5 2 7 8 10 12 7 5 -3 6 -16 1 -28 -4 -12 -4
-35 -1 -52 4 -17 1 -44 -7 -63 -9 -24 -10 -45 -3 -75 5 -25 5 -47 -1 -58 -6
-11 -5 -20 1 -24 5 -3 7 -12 3 -20 -3 -8 -1 -15 4 -15 5 0 10 -7 10 -15 0 -8
-7 -15 -14 -15 -8 0 -11 5 -8 10 10 16 -1 11 -16 -7 -8 -9 -9 -14 -4 -11 6 4
17 3 25 -2 12 -7 12 -11 -1 -27 -23 -26 -32 -44 -21 -41 6 2 10 -1 10 -7 0 -5
-5 -9 -11 -7 -7 2 -7 -1 0 -10 5 -7 9 -25 8 -40 -1 -15 4 -29 11 -32 9 -3 11
0 7 11 -5 12 -3 14 8 8 12 -8 12 -6 0 8 -7 9 -10 17 -6 17 4 0 2 7 -5 15 -11
13 -10 14 3 9 19 -7 24 -20 22 -64 -1 -19 4 -38 9 -42 7 -5 6 -11 -4 -18 -12
-8 -12 -10 5 -10 13 0 16 -3 8 -8 -17 -11 -24 -60 -10 -66 7 -2 4 -5 -6 -5 -9
-1 -26 -6 -36 -13 -16 -10 -17 -14 -6 -25 8 -7 18 -13 23 -13 5 0 9 -6 9 -12
1 -23 8 -43 18 -50 6 -5 6 -8 -2 -8 -6 0 -10 -11 -9 -25 2 -13 -1 -22 -5 -19
-5 3 -9 -4 -9 -15 0 -10 -6 -22 -12 -24 -10 -4 -10 -6 0 -6 7 -1 10 -6 6 -13
-4 -6 -3 -8 2 -5 6 3 16 2 24 -4 12 -6 12 -9 2 -9 -10 0 -10 -4 2 -16 17 -17
23 -79 6 -69 -6 3 -7 -1 -4 -9 4 -9 -1 -18 -10 -22 -9 -3 -14 -10 -11 -14 7
-12 -27 -21 -77 -20 -64 0 -84 -1 -70 -7 6 -3 12 -12 12 -20 0 -9 -6 -13 -14
-10 -10 4 -13 0 -11 -14 2 -11 0 -17 -5 -14 -5 3 -17 -3 -27 -15 -10 -11 -25
-20 -35 -20 -9 0 -20 -5 -23 -10 -5 -8 -11 -8 -20 0 -10 8 -15 8 -20 0 -5 -8
-10 -8 -20 0 -9 8 -15 8 -20 0 -4 -7 -12 -7 -26 0 -14 8 -19 7 -19 -1 0 -8 -4
-8 -15 1 -14 12 -20 7 -16 -14 1 -5 -5 -4 -13 4 -14 10 -16 10 -16 -5 0 -15
-2 -15 -16 -4 -13 10 -17 10 -25 -2 -5 -8 -9 -10 -9 -5 0 6 -7 1 -16 -10 -8
-10 -13 -14 -10 -7 4 6 2 15 -4 18 -6 4 -9 1 -8 -7 2 -7 -3 -12 -10 -10 -10 2
-10 -2 -1 -19 10 -19 9 -21 -5 -16 -10 4 -16 1 -16 -8 0 -8 5 -15 12 -15 6 0
8 -3 5 -6 -4 -4 -13 -1 -22 6 -13 11 -14 10 -9 -5 5 -13 4 -16 -4 -11 -8 5
-10 1 -5 -10 5 -13 3 -15 -7 -9 -9 5 -11 4 -6 -3 4 -7 2 -17 -4 -24 -6 -7 -19
-24 -30 -37 -16 -19 -20 -20 -20 -8 0 10 -4 17 -10 17 -5 0 -7 -7 -3 -16 4
-12 2 -15 -8 -12 -8 3 -14 15 -13 27 0 11 -3 21 -8 21 -5 0 -7 4 -4 9 4 5 0
12 -6 14 -10 4 -10 6 -1 6 7 1 10 8 7 16 -4 8 -11 12 -18 8 -6 -3 -8 -3 -4 2
4 4 2 15 -5 23 -9 13 -9 14 1 8 6 -4 12 -2 12 3 0 6 -5 11 -11 11 -5 0 -7 6
-3 13 5 7 1 7 -12 -3 -10 -8 -16 -10 -12 -6 4 5 2 16 -5 24 -9 13 -9 14 1 8
19 -12 14 1 -11 25 -12 12 -16 19 -9 15 6 -4 12 -3 12 2 0 14 -28 23 -36 11
-3 -6 -13 -8 -21 -5 -9 4 -11 2 -7 -6 5 -7 0 -9 -14 -6 -12 3 -21 3 -20 -1 3
-24 -4 -41 -14 -35 -7 5 -9 2 -5 -8 4 -11 0 -15 -11 -13 -9 1 -25 -2 -34 -7
-13 -6 -18 -5 -18 4 0 10 -2 10 -9 -1 -5 -8 -19 -12 -35 -9 -15 3 -26 1 -26
-6 0 -6 -4 -5 -9 2 -4 8 -11 13 -15 13 -3 -1 -7 -1 -8 0 -18 6 -48 3 -48 -4 0
-5 -5 -5 -13 1 -8 7 -18 7 -27 2 -9 -5 -19 -5 -27 2 -10 8 -13 7 -13 -3 0 -10
-3 -10 -12 -1 -7 7 -17 8 -30 1 -12 -7 -18 -6 -18 1 0 8 -6 8 -20 0 -11 -6
-24 -9 -29 -6 -5 3 -11 -3 -14 -14 -3 -14 -11 -18 -27 -15 -17 3 -20 2 -10
-10 8 -10 8 -15 -1 -21 -8 -5 -10 -3 -5 7 4 8 1 6 -7 -3 -8 -10 -18 -14 -23
-10 -4 4 -2 -1 6 -11 7 -10 9 -17 4 -16 -20 3 -31 -2 -31 -15 0 -8 7 -12 16
-9 9 3 6 -2 -7 -12 -16 -12 -20 -20 -13 -29 6 -7 6 -17 1 -26 -5 -8 -5 -19 1
-26 5 -6 12 -31 15 -55 3 -24 8 -55 11 -69 2 -14 6 -32 7 -40 1 -9 5 -20 8
-25 8 -13 -17 -47 -27 -37 -5 4 -5 1 -1 -5 4 -8 -4 -24 -18 -38 -15 -14 -26
-31 -26 -37 0 -6 -8 -21 -18 -32 -17 -21 -17 -21 4 -3 32 27 36 20 6 -12 -15
-15 -31 -26 -37 -23 -5 3 -3 -3 5 -13 14 -17 14 -18 -10 -5 -24 13 -24 12 -10
-5 14 -17 13 -18 -2 -12 -13 4 -15 2 -11 -10 4 -11 2 -14 -5 -9 -7 4 -12 2
-12 -3 0 -6 -3 -10 -7 -10 -21 3 -24 -3 -12 -18 10 -11 10 -14 2 -9 -12 6 -18
-5 -14 -26 0 -5 -3 -8 -8 -8 -10 0 -9 -18 0 -35 4 -5 5 -18 4 -28 -2 -9 1 -15
6 -11 8 5 13 -9 10 -28 0 -5 7 -8 16 -8 16 0 16 -2 3 -11 -12 -9 -10 -10 8 -6
19 5 21 3 11 -9 -9 -11 -8 -14 7 -15 11 -1 22 -1 25 -1 4 1 5 -9 2 -21 -4 -18
-3 -19 6 -7 9 13 11 13 11 -2 0 -9 5 -20 12 -24 7 -4 8 -3 4 4 -5 8 -2 10 9 6
14 -6 14 -8 -2 -21 -10 -8 -13 -12 -6 -8 7 3 16 -2 21 -12 10 -22 10 -33 -2
-52 -6 -9 -5 -12 1 -8 6 4 13 0 17 -8 3 -8 1 -15 -3 -15 -5 0 -12 -7 -15 -16
-3 -8 -2 -13 3 -10 4 3 6 -6 3 -19 -2 -14 -9 -25 -14 -25 -5 0 -6 -5 -2 -12 5
-8 2 -9 -10 -5 -12 5 -15 3 -10 -5 9 -15 12 -58 4 -58 -9 0 -6 -32 4 -48 4 -6
3 -12 -3 -12 -7 0 -7 -8 -1 -26 6 -16 7 -31 2 -38 -5 -6 -8 -21 -7 -33 1 -16
-2 -20 -10 -13 -8 7 -10 1 -7 -20 2 -17 7 -30 11 -30 4 0 7 -18 7 -39 -1 -22
2 -37 5 -35 3 2 15 -4 25 -12 10 -9 12 -13 4 -9 -8 4 -6 -1 4 -9 11 -9 14 -16
8 -16 -7 0 -11 -3 -11 -7 1 -5 1 -19 0 -33 -1 -18 -4 -21 -10 -12 -6 10 -10 8
-14 -8 -3 -12 -10 -19 -16 -15 -6 3 -11 1 -11 -5 0 -6 -4 -9 -9 -5 -5 3 -12 1
-15 -4 -4 -5 -1 -13 5 -17 8 -5 9 -3 4 6 -5 9 -4 11 4 6 16 -10 3 -29 -16 -22
-8 3 -11 1 -8 -4 4 -6 0 -17 -8 -25 -15 -14 -12 -59 2 -50 4 2 6 -14 4 -35 -1
-21 2 -42 7 -45 6 -4 7 -12 3 -18 -4 -8 -2 -8 9 1 13 10 17 10 22 -3 4 -11 2
-14 -6 -9 -7 5 -8 3 -4 -5 5 -7 15 -10 23 -6 12 4 13 3 5 -8 -7 -8 -9 -17 -5
-21 4 -4 8 -20 8 -36 1 -24 -2 -27 -14 -17 -12 10 -13 9 -3 -10 12 -22 3 -37
-22 -38 -10 0 -14 -17 -21 -84 -2 -24 -6 -46 -9 -48 -3 -3 -1 -14 4 -24 7 -12
7 -20 0 -24 -7 -4 -7 -13 0 -26 6 -11 8 -24 5 -29 -4 -6 1 -13 10 -16 12 -5
13 -10 4 -20 -6 -7 -8 -18 -4 -24 3 -5 -2 -10 -12 -11 -16 0 -16 -1 2 -9 15
-7 16 -9 4 -9 -12 -1 -16 -9 -14 -31 2 -27 1 -28 -17 -19 -15 8 -19 8 -14 0 4
-6 1 -11 -6 -11 -9 0 -9 -3 2 -10 13 -8 12 -10 -3 -10 -10 0 -16 -4 -12 -9 3
-5 0 -13 -6 -17 -8 -4 -9 -3 -5 4 4 7 3 12 -2 12 -16 0 -22 -13 -12 -25 7 -8
5 -12 -5 -12 -8 0 -15 4 -15 9 0 5 -4 6 -10 3 -6 -4 -10 -110 -10 -286 0 -249
2 -279 16 -279 9 0 28 -8 42 -19 24 -16 63 -28 152 -45 32 -7 59 -55 70 -124
5 -29 16 -59 25 -68 21 -21 19 -44 -4 -44 -17 0 -18 -3 -5 -56 14 -60 34 -90
68 -100 11 -4 33 -15 48 -25 14 -11 37 -19 50 -19 27 0 48 -17 48 -39 0 -8 7
-23 16 -33 15 -15 15 -25 6 -74 -8 -37 -8 -62 -2 -74 6 -10 10 -32 10 -49 0
-45 52 -92 127 -114 34 -10 65 -17 70 -16 20 5 60 -15 78 -39 14 -19 21 -47
24 -97 4 -75 8 -82 71 -112 19 -9 42 -22 50 -28 8 -7 23 -15 32 -18 13 -4 16
-1 13 14 -4 17 -2 19 10 9 12 -10 15 -10 15 0 0 7 7 10 15 7 8 -4 17 -2 20 4
8 12 25 2 25 -14 0 -7 -4 -6 -10 3 -5 8 -10 10 -10 4 0 -18 13 -24 27 -13 8 7
13 8 13 1 0 -5 9 -8 20 -5 11 3 20 9 20 13 0 5 10 6 22 2 13 -3 19 -1 15 5 -5
7 2 7 18 0 14 -7 25 -15 25 -19 0 -5 5 -8 11 -8 5 0 7 5 3 12 -4 7 -3 8 4 4 6
-4 8 -14 5 -22 -5 -14 -3 -15 14 -6 11 6 24 8 28 4 7 -7 13 -9 45 -11 11 0 20
-6 20 -12 0 -5 -4 -8 -9 -4 -5 3 -13 0 -17 -7 -4 -7 -4 -10 1 -6 4 4 14 0 22
-10 8 -9 11 -11 7 -3 -6 11 -2 11 16 -2 17 -12 26 -13 41 -4 14 9 16 14 6 27
-6 8 -8 12 -3 8 5 -4 17 -3 27 3 13 7 19 6 19 -1 0 -6 5 -8 12 -4 7 5 10 2 6
-7 -6 -17 24 -47 42 -41 7 3 10 0 6 -7 -5 -7 1 -11 16 -11 18 0 20 -2 8 -10
-8 -5 -10 -10 -5 -10 6 0 19 -13 28 -30 10 -16 22 -30 28 -30 5 0 18 -8 28
-17 39 -35 47 -40 73 -39 15 1 24 -2 21 -7 -3 -5 7 -3 21 5 29 15 143 8 155
-9 3 -5 14 -13 25 -16 13 -5 17 -14 13 -28 -3 -12 -3 -18 0 -15 3 3 12 -2 20
-12 8 -9 12 -11 8 -5 -4 9 -1 11 9 7 9 -3 13 -10 10 -15 -3 -5 0 -9 6 -9 6 0
8 -4 5 -10 -3 -5 -2 -10 4 -10 5 0 12 6 14 13 3 7 6 6 6 -5 1 -9 6 -20 13 -24
7 -5 8 -3 3 7 -5 8 2 5 15 -6 15 -13 21 -15 16 -5 -4 8 0 6 8 -4 9 -11 16 -16
16 -12 0 4 10 0 22 -8 15 -11 26 -12 40 -5 12 7 18 6 18 -1 0 -8 6 -8 20 0 14
8 20 8 20 0 0 -7 6 -8 19 0 14 7 22 7 26 0 4 -6 12 -7 18 -3 16 10 38 10 58 1
9 -4 21 -2 26 3 8 8 13 7 18 -1 5 -8 13 -6 28 7 11 10 17 12 13 6 -4 -7 -2
-13 3 -13 6 0 11 4 11 9 0 5 12 8 26 5 14 -3 23 -1 21 4 -3 4 3 8 14 8 10 0
19 -4 19 -9 0 -5 7 -4 15 3 8 6 20 8 26 4 9 -5 10 -2 6 10 -5 13 -3 15 11 7
11 -6 24 -6 34 0 11 6 19 5 23 -1 5 -8 11 -8 20 0 9 8 15 8 20 0 4 -7 12 -7
25 0 13 7 21 7 26 -1 5 -9 10 -8 18 2 10 13 24 17 63 21 7 1 9 6 6 11 -4 7 1
8 12 3 15 -5 16 -4 6 8 -10 12 -6 14 23 12 19 -1 32 2 30 6 -3 5 0 9 5 9 6 1
17 2 24 3 6 1 11 8 9 14 -2 10 2 10 20 1 21 -11 22 -11 9 5 -12 14 -12 16 4
10 14 -6 16 -4 10 6 -6 10 -4 12 8 7 11 -4 17 -1 17 9 0 8 4 13 8 10 12 -7 87
21 85 32 -1 5 9 8 23 6 13 -1 22 1 20 4 -2 4 8 16 22 26 14 11 22 14 18 8 -4
-7 -2 -12 3 -12 6 0 11 5 11 11 0 5 5 7 10 4 6 -3 10 -1 10 5 0 6 5 8 10 5 6
-3 10 -1 10 6 0 8 4 8 15 -1 13 -11 14 -10 9 4 -6 14 5 21 29 17 4 0 7 4 7 10
0 5 6 7 13 3 7 -5 7 -1 -3 12 -8 10 -11 16 -6 12 5 -4 18 -2 30 4 11 7 24 11
28 10 5 -1 7 4 5 11 -1 6 4 11 12 9 8 -2 11 3 8 12 -8 21 26 49 41 34 9 -9 10
-6 7 11 -4 20 -2 21 12 9 15 -12 15 -11 5 8 -10 18 -9 21 5 20 10 0 19 8 21
19 7 31 42 75 60 75 15 0 15 2 2 11 -12 9 -10 10 8 6 19 -4 21 -3 12 8 -14 16
-4 39 12 29 7 -4 8 -2 4 4 -4 7 -1 12 6 12 9 0 9 3 -2 10 -13 8 -13 10 2 10
12 0 15 5 11 17 -5 12 -3 14 7 8 10 -6 12 -4 7 8 -3 9 0 18 9 21 8 3 14 12 14
20 0 8 5 18 12 22 7 4 8 3 4 -4 -11 -19 5 -14 19 5 11 14 16 15 28 5 12 -10
17 -10 23 -1 4 8 3 9 -4 5 -7 -4 -12 -3 -12 2 0 14 48 21 54 8 3 -7 5 -6 5 2
1 8 6 10 14 5 19 -12 37 -12 37 0 0 8 4 7 12 -1 7 -7 17 -12 22 -12 6 0 4 5
-4 11 -9 6 -11 12 -4 15 5 2 9 17 8 33 -1 23 2 28 14 24 11 -5 14 -2 10 9 -5
11 0 14 19 10 17 -3 24 -1 19 6 -4 7 3 9 20 6 17 -3 23 -1 19 7 -6 8 -2 8 14
0 18 -10 20 -9 14 5 -4 11 -3 15 5 10 7 -4 10 0 7 12 -2 11 3 19 11 19 8 0 14
-5 14 -11 0 -6 6 0 13 14 11 21 18 24 52 22 22 -2 36 1 30 5 -19 15 -13 38 22
77 9 10 9 16 0 26 -8 9 -8 11 -1 7 7 -4 17 0 24 8 7 8 16 12 21 9 5 -3 8 0 7
8 -2 7 2 12 9 11 7 -2 10 6 8 19 -3 16 -2 19 6 11 6 -6 18 -9 26 -6 11 4 10 8
-4 20 -17 14 -17 14 -1 9 11 -3 22 2 28 15 6 11 15 17 21 14 5 -4 6 -11 3 -17
-4 -7 -2 -8 5 -4 6 4 8 13 4 19 -14 22 -11 36 5 30 10 -4 13 -2 8 5 -7 12 28
35 38 24 4 -3 4 1 1 10 -4 9 -1 19 4 23 6 3 8 12 5 18 -4 7 -4 9 0 5 4 -3 16
2 27 13 11 11 25 17 32 12 9 -5 8 -2 -1 9 -10 13 -10 17 5 23 10 5 22 7 27 6
5 -1 3 5 -4 14 -7 9 -9 15 -4 14 24 -4 33 2 27 19 -6 15 -5 15 10 3 15 -12 17
-12 11 2 -4 12 2 20 20 27 29 11 36 22 9 14 -10 -3 -6 2 10 11 15 8 27 20 27
26 0 6 4 8 9 4 5 -3 13 0 17 6 4 7 3 9 -3 6 -6 -4 -14 0 -17 9 -3 8 -2 12 4 9
20 -12 33 43 34 147 1 82 -2 108 -12 108 -10 0 -10 5 -2 20 6 11 8 25 5 30 -3
6 1 10 9 10 9 0 16 9 16 20 0 11 6 20 13 20 8 0 7 4 -3 10 -10 6 -11 10 -3 10
7 0 15 11 19 25 3 14 9 25 13 25 3 0 7 32 7 70 1 39 -3 70 -8 70 -5 0 -7 4 -4
9 3 5 -5 16 -19 25 -18 12 -25 13 -25 4 -1 -8 -5 -7 -14 4 -7 10 -16 15 -19
11 -4 -3 -7 0 -7 8 0 11 -2 11 -10 -1 -7 -11 -10 -11 -10 -2 0 7 -4 10 -10 7
-6 -3 -7 1 -4 9 6 15 -6 21 -29 17 -5 -1 -6 3 -2 9 3 5 1 10 -4 10 -6 0 -11 7
-11 16 0 8 -4 12 -10 9 -5 -3 -7 0 -4 9 3 8 12 17 19 20 14 5 15 23 1 44 -6 9
-3 12 9 10 11 -2 19 4 20 15 2 9 -1 15 -6 12 -5 -4 -6 1 -3 9 3 9 12 12 22 8
14 -5 15 -3 5 10 -7 8 -10 18 -7 21 9 9 13 167 4 167 -5 0 -6 9 -3 20 3 11 1
20 -5 20 -5 0 -10 17 -10 38 -1 83 -5 100 -18 95 -9 -3 -14 2 -15 13 0 11 -3
30 -5 44 -6 33 4 72 16 65 6 -3 10 -2 10 4 0 5 -6 12 -12 14 -8 3 -6 6 5 6 9
1 17 9 17 19 0 14 2 15 10 2 8 -12 10 -11 10 7 0 12 4 25 10 28 5 3 8 24 7 45
-2 21 0 37 5 34 7 -4 13 26 9 49 0 4 4 7 10 7 5 0 7 6 3 12 -12 19 -12 48 -1
48 5 0 3 8 -4 17 -12 14 -12 16 1 9 12 -6 11 -4 -1 6 -9 7 -14 19 -11 27 3 8
0 11 -7 7 -6 -4 -11 0 -11 9 0 18 -17 39 -40 48 -11 4 -11 6 -2 6 11 1 10 4
-1 15 -20 21 -13 81 13 104 9 8 10 11 2 7 -11 -6 -11 -3 -1 13 7 12 17 18 21
16 4 -3 8 2 8 10 0 15 33 40 42 31 2 -2 5 5 6 15 4 44 6 49 19 54 7 3 13 12
13 20 0 10 7 13 21 11 17 -4 19 -2 8 11 -10 12 -9 13 4 8 10 -3 20 2 27 17 10
17 14 19 21 8 7 -11 9 -11 9 3 0 9 5 20 12 24 6 4 8 3 4 -4 -7 -12 20 -10 31
3 4 4 2 5 -4 1 -7 -4 -13 -2 -13 3 0 6 7 11 15 11 8 0 15 5 15 11 0 6 6 9 14
6 10 -4 14 0 13 14 -1 10 -5 19 -10 19 -4 0 -5 6 -1 12 11 18 12 48 2 48 -5 0
-6 4 -3 10 4 7 -2 7 -18 1 -14 -6 -28 -7 -31 -4 -3 4 -6 2 -6 -4 0 -6 -11 -9
-25 -8 -14 2 -25 -1 -25 -6 0 -5 -10 1 -22 13 -13 13 -22 26 -21 30 2 5 -2 8
-9 8 -6 0 -8 3 -5 6 3 4 -3 18 -14 32 -12 16 -17 33 -13 46 6 21 6 21 -11 1
-9 -11 -14 -15 -11 -9 6 13 -15 24 -45 24 -11 0 -18 4 -15 8 3 5 -1 9 -9 9 -8
0 -12 -4 -9 -9 3 -4 0 -8 -5 -8 -6 0 -11 5 -11 11 0 5 -4 8 -8 5 -5 -3 -25 6
-46 20 -26 18 -43 23 -59 18 -34 -12 -48 -14 -97 -15 -51 -1 -130 17 -130 30
0 4 -7 8 -15 8 -8 0 -12 -4 -9 -9 6 -10 -10 -11 -19 -1 -4 3 -22 8 -39 10 -18
2 -35 8 -36 14 -3 6 -9 6 -18 -2 -12 -10 -13 -9 -7 6 5 15 3 17 -11 12 -13 -5
-18 0 -22 23 -4 16 -9 29 -13 28 -3 0 -13 0 -21 1 -13 1 -13 2 0 11 12 8 11
10 -6 10 -11 0 -29 7 -40 16 -10 8 -13 12 -6 9 11 -6 12 -3 3 14 -7 11 -14 21
-17 21 -3 0 -2 -6 2 -12 5 -9 2 -9 -9 1 -18 14 -23 26 -8 16 5 -3 8 7 7 22 -2
16 -7 28 -12 28 -5 0 -15 4 -23 9 -9 6 -12 5 -8 -1 4 -6 0 -14 -8 -17 -9 -3
-18 1 -21 9 -4 8 -9 13 -14 10 -4 -2 -12 7 -19 21 -8 18 -8 23 0 18 6 -3 4 5
-5 18 -9 14 -13 28 -9 31 3 4 1 7 -5 7 -7 0 -12 9 -12 21 0 11 -5 17 -10 14
-13 -8 -8 17 5 28 6 4 -3 5 -20 1 -23 -4 -26 -3 -15 5 13 9 12 11 -5 12 -11 1
-24 1 -30 0 -5 0 -3 5 6 11 15 10 14 14 -10 33 -14 12 -43 28 -64 34 -22 8
-35 17 -30 24 4 6 0 8 -10 4 -11 -4 -17 -1 -17 8 0 9 -6 12 -17 8 -10 -4 -14
-2 -10 4 4 6 0 14 -9 17 -10 4 -13 2 -8 -7 4 -6 -2 -4 -14 6 -12 11 -26 16
-33 11 -9 -5 -10 -2 -6 9 4 10 2 16 -6 14 -6 -1 -13 8 -15 21 -2 12 -7 22 -11
22 -4 0 -5 20 -1 45 4 25 3 48 -2 51 -5 3 -4 12 2 19 8 10 8 15 0 20 -8 5 -8
11 1 21 9 11 9 14 -1 14 -7 0 -10 7 -6 16 6 15 4 15 -10 3 -16 -13 -16 -12 -4
11 13 24 12 24 -5 10 -17 -14 -18 -13 -12 3 4 11 3 16 -3 12 -6 -3 -10 -2 -10
4 0 15 -61 25 -70 11 -18 -29 -32 108 -16 158 5 15 3 22 -6 22 -8 0 -30 8 -50
19 -43 21 -93 33 -102 24 -8 -8 -35 -15 -60 -14 -10 0 -28 -7 -40 -15 -11 -7
-32 -14 -46 -14 -14 0 -33 -9 -43 -20 -9 -11 -24 -20 -32 -20 -9 0 -13 -4 -10
-10 3 -5 -1 -10 -9 -10 -8 0 -18 -5 -22 -12 -4 -6 -3 -8 3 -5 6 4 10 -1 9 -11
0 -9 5 -16 12 -14 8 1 11 -2 7 -8 -5 -8 -11 -8 -19 -1 -7 6 -17 7 -21 3 -5 -4
-4 0 0 8 8 13 6 13 -8 1 -9 -7 -14 -18 -10 -24 4 -7 -1 -8 -13 -4 -17 6 -17 6
-3 -5 11 -9 14 -19 8 -33 -4 -11 -8 -15 -8 -10 -1 6 -7 -1 -14 -14 -14 -27
-57 -48 -57 -28 0 8 -4 6 -10 -3 -5 -8 -10 -10 -10 -3 0 7 -19 11 -56 9 -31 0
-58 2 -61 7 -2 4 -9 5 -14 1 -5 -3 -8 0 -7 8 2 9 -11 14 -39 16 -35 3 -42 0
-37 -12 8 -22 -47 -79 -69 -70 -9 3 -14 10 -11 16 3 5 11 4 20 -3 9 -7 14 -8
14 -1 0 16 -23 20 -42 8 -15 -9 -15 -11 0 -23 15 -13 15 -14 -4 -8 -11 3 -29
-2 -40 -10 -36 -27 -127 -14 -109 15 5 8 4 11 -2 7 -14 -9 -42 28 -33 44 13
24 19 79 9 85 -6 4 -5 11 3 17 7 7 11 11 9 10 -9 -5 -61 39 -56 48 4 5 1 9 -4
9 -6 0 -11 5 -11 11 0 12 -30 44 -30 32 -2 -26 -34 59 -36 92 -1 22 -4 51 -8
65 -8 36 -47 109 -72 136 -12 13 -21 38 -22 55 0 16 -6 37 -13 45 -13 16 -21
84 -10 84 3 0 11 11 17 24 9 20 8 26 -7 37 -11 7 -19 19 -19 25 0 7 -13 26
-28 42 -28 29 -36 72 -19 98 8 13 10 82 4 154 -2 28 -18 50 -30 43 -4 -2 -10
3 -13 11 -3 9 -10 16 -16 16 -17 0 -58 48 -45 53 7 3 2 6 -9 6 -17 1 -26 14
-43 62 -13 33 -20 67 -17 75 4 9 -1 14 -15 14 -11 0 -28 4 -37 8 -9 4 -27 6
-39 4z m-9 -1011 c3 -5 -1 -11 -9 -14 -9 -4 -12 -1 -8 9 6 16 10 17 17 5z m13
-181 c-1 -11 -5 -20 -9 -20 -3 0 -6 9 -5 20 1 11 5 20 9 20 3 0 6 -9 5 -20z
m1178 -78 c-3 -3 -11 0 -18 7 -9 10 -8 11 6 5 10 -3 15 -9 12 -12z m-1982
-217 c-3 -9 -8 -14 -10 -11 -3 3 -2 9 2 15 9 16 15 13 8 -4z m194 -190 c0 -8
-4 -12 -9 -9 -5 3 -6 10 -3 15 9 13 12 11 12 -6z m2590 -67 c16 -18 16 -18 0
-12 -9 3 -17 10 -17 16 0 5 -4 7 -9 3 -5 -3 -12 -2 -15 3 -10 17 24 8 41 -10z
m-3333 -198 c-6 -6 -10 -3 -10 10 0 13 4 16 10 10 7 -7 7 -13 0 -20z m-49
-120 c3 -5 -1 -10 -10 -10 -9 0 -13 5 -10 10 3 6 8 10 10 10 2 0 7 -4 10 -10z
m4232 -1803 c0 -8 -6 -14 -14 -14 -9 0 -10 4 -2 14 6 7 12 13 14 13 1 0 2 -6
2 -13z"/>
<path d="M2631 8397 c-8 -10 -7 -14 2 -14 8 0 14 6 14 14 0 7 -1 13 -2 13 -2
0 -8 -6 -14 -13z"/>
<path d="M2620 8359 c0 -5 5 -7 10 -4 6 3 10 8 10 11 0 2 -4 4 -10 4 -5 0 -10
-5 -10 -11z"/>
<path d="M2614 8238 c-3 -5 -2 -8 3 -7 20 4 27 -2 13 -12 -12 -8 -12 -10 -1
-7 19 5 23 35 4 35 -7 0 -16 -4 -19 -9z"/>
<path d="M6450 8200 c0 -5 5 -10 11 -10 5 0 7 5 4 10 -3 6 -8 10 -11 10 -2 0
-4 -4 -4 -10z"/>
<path d="M5049 8043 c-13 -16 -12 -17 4 -4 16 13 21 21 13 21 -2 0 -10 -8 -17
-17z"/>
<path d="M5070 8016 c0 -2 8 -10 18 -17 15 -13 16 -12 3 4 -13 16 -21 21 -21
13z"/>
<path d="M3272 7693 c3 -18 22 -43 32 -43 2 0 -2 14 -10 30 -17 34 -26 39 -22
13z"/>
<path d="M2630 7556 c0 -2 8 -10 18 -17 15 -13 16 -12 3 4 -13 16 -21 21 -21
13z"/>
<path d="M3487 7383 c-4 -3 -7 -11 -7 -17 0 -6 5 -5 12 2 6 6 9 14 7 17 -3 3
-9 2 -12 -2z"/>
<path d="M2649 7339 c5 -6 7 -18 4 -25 -3 -8 -1 -14 5 -14 13 0 9 27 -6 40 -8
7 -9 7 -3 -1z"/>
<path d="M3835 7200 c-3 -5 -1 -10 4 -10 6 0 11 5 11 10 0 6 -2 10 -4 10 -3 0
-8 -4 -11 -10z"/>
<path d="M2661 7130 c-11 -32 -1 -40 19 -15 10 12 10 15 -1 15 -12 0 -12 2 0
9 8 5 9 11 3 15 -6 3 -15 -8 -21 -24z"/>
<path d="M4887 7043 c-5 -8 9 -53 16 -53 2 0 2 14 -1 30 -4 31 -8 36 -15 23z"/>
<path d="M4900 6970 c0 -17 17 -47 23 -40 2 3 -2 16 -10 30 -7 14 -13 18 -13
10z"/>
<path d="M1750 6886 c0 -2 7 -7 16 -10 8 -3 12 -2 9 4 -6 10 -25 14 -25 6z"/>
<path d="M7441 5893 c0 -5 4 -17 9 -28 8 -17 8 -16 7 8 -1 15 -5 27 -9 27 -4
0 -8 -3 -7 -7z"/>
<path d="M5676 5767 c3 -10 9 -15 12 -12 3 3 0 11 -7 18 -10 9 -11 8 -5 -6z"/>
<path d="M5590 5690 c-9 -6 -10 -10 -3 -10 6 0 15 5 18 10 8 12 4 12 -15 0z"/>
<path d="M5267 3359 c7 -7 15 -10 18 -7 3 3 -2 9 -12 12 -14 6 -15 5 -6 -5z"/>
<path d="M4895 2980 c3 -5 8 -10 11 -10 2 0 4 5 4 10 0 6 -5 10 -11 10 -5 0
-7 -4 -4 -10z"/>
<path d="M4546 2796 c-10 -16 -12 -27 -6 -31 6 -4 9 -3 8 2 -1 4 3 18 10 31
17 30 8 28 -12 -2z"/>
<path d="M4441 2676 c-9 -11 -9 -16 1 -22 7 -4 10 -4 6 1 -4 4 -3 14 3 22 6 7
9 13 6 13 -2 0 -10 -6 -16 -14z"/>
<path d="M2051 2614 c0 -11 3 -14 6 -6 3 7 2 16 -1 19 -3 4 -6 -2 -5 -13z"/>
<path d="M2120 2416 c0 -2 8 -10 18 -17 15 -13 16 -12 3 4 -13 16 -21 21 -21
13z"/>
<path d="M2978 2413 c7 -3 16 -2 19 1 4 3 -2 6 -13 5 -11 0 -14 -3 -6 -6z"/>
<path d="M3676 1218 c3 -5 10 -6 15 -3 13 9 11 12 -6 12 -8 0 -12 -4 -9 -9z"/>
<path d="M3716 1219 c-15 -9 -16 -13 -5 -20 21 -13 25 -11 26 11 1 11 1 20 0
20 -1 0 -10 -5 -21 -11z"/>
<path d="M2588 1095 c-20 -26 -22 -35 -10 -35 9 0 35 50 30 55 -2 2 -11 -7
-20 -20z"/>
<path d="M7426 718 c3 -5 10 -6 15 -3 13 9 11 12 -6 12 -8 0 -12 -4 -9 -9z"/>
<path d="M7410 696 c0 -2 8 -10 18 -17 15 -13 16 -12 3 4 -13 16 -21 21 -21
13z"/>
<path d="M1061 367 c2 -26 6 -47 9 -47 14 0 19 14 9 26 -8 9 -5 11 10 7 28 -7
26 7 -5 36 l-25 24 2 -46z"/>
<path d="M1060 30 c0 -25 4 -30 25 -30 l26 0 -23 30 c-12 17 -23 30 -25 30 -2
0 -3 -13 -3 -30z"/>
<path d="M2788 3 c6 -2 18 -2 25 0 6 3 1 5 -13 5 -14 0 -19 -2 -12 -5z"/>
</g>
</svg>
